<?xml version="1.0" standalone="no"?>
<!DOCTYPE svg PUBLIC "-//W3C//DTD SVG 20010904//EN"
 "http://www.w3.org/TR/2001/REC-SVG-20010904/DTD/svg10.dtd">
<svg version="1.0" xmlns="http://www.w3.org/2000/svg"
 width="700.000000pt" height="700.000000pt" viewBox="0 0 700.000000 700.000000"
 preserveAspectRatio="xMidYMid meet">
<metadata>
Created by potrace 1.14, written by Peter Selinger 2001-2017
</metadata>
<g transform="translate(0.000000,700.000000) scale(0.100000,-0.100000)"
fill="#000000" stroke="none">
<path d="M1160 6952 c-19 -25 -87 -114 -151 -197 -136 -177 -323 -422 -426
-556 -50 -65 -71 -101 -67 -113 3 -9 11 -16 18 -16 6 -1 79 -2 162 -2 l151 -2
0 -942 0 -942 23 -32 c40 -56 63 -60 339 -60 287 0 314 5 348 68 20 36 21 51
21 942 0 498 1 919 1 936 l1 32 148 -2 c150 -2 182 3 182 30 0 8 -59 92 -132
187 -570 744 -549 717 -572 717 -6 0 -27 -22 -46 -48z"/>
<path d="M4137 6120 c-143 -36 -257 -156 -288 -302 l-12 -53 -11 46 c-26 101
-104 191 -214 245 -51 26 -67 29 -152 29 -86 0 -102 -3 -161 -31 -111 -53
-197 -161 -217 -274 l-8 -45 -7 46 c-17 106 -105 217 -217 272 -59 29 -73 32
-160 32 -87 0 -101 -3 -160 -32 -120 -59 -202 -168 -218 -290 -4 -32 -7 -249
-7 -483 l1 -425 30 -60 29 -60 5 -905 c6 -1012 2 -949 80 -1115 48 -103 86
-154 198 -269 64 -67 94 -105 101 -132 7 -27 11 -370 11 -1078 0 -773 3 -1049
12 -1078 17 -56 83 -121 138 -137 34 -9 264 -13 950 -14 998 -2 927 -6 994 60
64 63 60 -13 61 1229 l1 1131 22 37 c17 29 261 332 394 491 9 11 53 65 98 120
45 55 89 109 98 120 72 84 183 226 200 255 11 19 29 67 39 105 18 65 19 109
18 640 l-2 570 -26 81 c-50 152 -159 282 -299 354 l-78 41 0 242 c-1 133 -3
260 -6 282 -17 114 -107 233 -220 290 -54 27 -68 30 -159 30 -88 0 -107 -3
-157 -27 -32 -15 -80 -48 -107 -73 -50 -47 -110 -149 -112 -189 0 -12 -11 12
-25 53 -40 120 -104 193 -213 244 -70 33 -173 44 -244 27z"/>
<path d="M773 2898 c-11 -13 -43 -53 -71 -90 -125 -162 -490 -639 -532 -693
-26 -33 -53 -71 -60 -84 -21 -41 1 -47 169 -46 101 1 151 -2 152 -9 1 -6 3
-429 4 -941 1 -511 3 -938 4 -948 0 -10 14 -32 30 -48 l30 -30 304 1 304 1 29
30 29 30 2 937 c0 515 1 946 2 958 1 20 6 20 149 19 147 -2 182 4 182 29 0 7
-48 76 -107 153 -60 77 -119 155 -133 173 -170 224 -436 567 -444 572 -16 11
-21 10 -43 -14z"/>
<path d="M6184 2912 c-5 -4 -77 -95 -160 -202 -82 -107 -154 -202 -161 -210
-11 -13 -26 -33 -92 -120 -11 -14 -76 -99 -145 -190 -69 -90 -126 -170 -126
-176 0 -24 25 -28 179 -29 l155 0 1 -940 c1 -517 5 -951 9 -965 4 -14 22 -35
40 -48 32 -21 39 -22 317 -22 l285 0 32 28 c20 16 36 41 40 62 4 19 7 450 7
958 0 618 3 922 10 923 5 1 77 2 159 3 190 1 192 3 110 112 -32 44 -61 81 -64
84 -3 3 -25 32 -50 65 -25 33 -92 121 -150 196 -58 75 -115 149 -127 165 -12
16 -48 63 -80 105 -32 42 -71 93 -87 115 -38 49 -78 94 -85 94 -3 0 -11 -4
-17 -8z"/>
</g>
</svg>
